<svg width="25" height="42" viewBox="0 0 25 42" fill="none" xmlns="http://www.w3.org/2000/svg">
    <path
        d="M22.9966 0.00942898C17.566 0.592353 13.5586 3.89381 11.2225 8.66659C9.65687 11.057 6.52948 18.3549 5.3921 22.1752C3.32982 26.926 1.53147 32.5785 0.124124 37.6741C-0.736166 40.7901 3.12665 42.823 3.99187 39.693C5.04437 35.8806 6.31592 31.7588 7.75284 27.9338C9.17881 31.8208 10.6278 35.6952 12.1835 39.5082C13.3894 42.4682 17.0178 39.8724 15.8164 36.9224C14.2146 32.9973 12.7268 29.0096 11.2608 25.0085C11.2794 24.9311 11.303 24.8557 11.3227 24.779C11.5669 24.8637 11.8363 24.8898 12.1331 24.8211C14.3761 24.3082 16.6191 23.7966 18.8638 23.2837C19.8226 23.0643 20.1901 21.7864 20.0389 20.7633C19.5855 17.6972 18.1513 15.5643 16.3661 13.5461C16.1011 12.4483 15.2173 11.4772 14.2365 10.5121C16.2249 6.59701 19.4711 4.47207 23.6964 4.01853C25.8529 3.78843 25.1344 -0.219339 22.9966 0.00942898ZM14.8241 17.4365C15.3788 18.1394 15.8509 18.8791 16.2073 19.7355C15.122 19.9836 14.0361 20.231 12.9507 20.4791C13.4983 19.4053 14.1286 18.3915 14.8241 17.4365Z"
        fill="white" />
</svg>